<?xml version="1.0" encoding="UTF-8"?>
<svg width="200" height="150" viewBox="0 0 200 150" fill="none" xmlns="http://www.w3.org/2000/svg">
  <!-- Background -->
  <rect width="200" height="150" fill="#f8f9fa" rx="4"/>
  
  <!-- Graph area -->
  <rect x="30" y="20" width="160" height="110" fill="#fff" stroke="#e9ecef" rx="2"/>
  
  <!-- Grid lines -->
  <line x1="30" y1="60" x2="190" y2="60" stroke="#e9ecef" stroke-width="1" stroke-dasharray="2 2"/>
  <line x1="30" y1="90" x2="190" y2="90" stroke="#e9ecef" stroke-width="1" stroke-dasharray="2 2"/>
  <line x1="30" y1="120" x2="190" y2="120" stroke="#e9ecef" stroke-width="1" stroke-dasharray="2 2"/>
  
  <!-- Sample line graph -->
  <path d="M40 100 L70 80 L100 90 L130 50 L160 70 L190 40" stroke="#36A2EB" stroke-width="2" fill="none" stroke-linecap="round" stroke-linejoin="round"/>
  
  <!-- Sample bars -->
  <rect x="40" y="70" width="20" height="60" fill="#4BC0C0" opacity="0.7" rx="2"/>
  <rect x="70" y="50" width="20" height="80" fill="#FF9F40" opacity="0.7" rx="2"/>
  <rect x="100" y="30" width="20" height="100" fill="#FF6384" opacity="0.7" rx="2"/>
  
  <!-- Chart icon -->
  <path d="M10 35H25V115H10V35Z" fill="#6c757d" fill-opacity="0.2"/>
  <path d="M30 60H45V115H30V60Z" fill="#6c757d" fill-opacity="0.2"/>
  <path d="M50 80H65V115H50V80Z" fill="#6c757d" fill-opacity="0.2"/>
  
  <!-- Text -->
  <text x="100" y="145" font-family="Arial" font-size="12" text-anchor="middle" fill="#6c757d">No data available</text>
</svg>
